<svg id="Ebene_1" data-name="Ebene 1" xmlns="http://www.w3.org/2000/svg" viewBox="0 0 149.93 112.8"><defs><style>.cls-1{fill:#fff;}</style></defs><g id="Ebene_2" data-name="Ebene 2"><g id="Ebene_1-2" data-name="Ebene 1-2"><g id="Ebene_2-2" data-name="Ebene 2-2"><path class="cls-1" d="M106,48h71.77c3,0,3,0,3,2.9V157.84c0,3,0,3-2.91,3H33.73c-2.87,0-2.88,0-2.88-2.81V50.88c0-2.84,0-2.85,2.82-2.85Z" transform="translate(-30.85 -48.02)"/><path d="M106.25,58.07h54.81c.61,0,1.23,0,1.84,0,.78,0,1,.42.47,1-.35.42-.75.8-1.13,1.18q-14.09,14.13-28.15,28.25C126.69,96,119.34,103.51,112,111c-4.31,4.36-7.56,4.35-11.86,0Q79.38,90,58.68,69.09q-4.38-4.44-8.67-9c-.48-.5-1.5-.91-1.09-1.74.31-.63,1.25-.31,1.91-.31q24.44,0,48.88,0Z" transform="translate(-30.85 -48.02)"/><path d="M105.64,151H52.08c-.48,0-1,0-1.43,0-.65-.05-1.54.28-1.87-.44s.52-1.16,1-1.62q8.55-8.79,17.14-17.54c6-6.09,11.94-12.15,17.83-18.29,1.29-1.35,2.16-1.46,3.43,0,1.72,1.93,3.61,3.71,5.46,5.53,6.57,6.46,18.28,6.45,24.86,0,2-1.91,3.89-3.83,5.77-5.8.85-.88,1.49-.92,2.36,0q12.32,12.69,24.67,25.33c3.43,3.51,6.88,7,10.3,10.51.54.56,1.62,1,1.29,1.89s-1.45.48-2.22.48Q133.14,151,105.64,151Z" transform="translate(-30.85 -48.02)"/><path d="M40.89,104.3q0-18.18,0-36.37c0-.63-.34-1.53.42-1.82s1,.55,1.43,1Q60.35,84.87,78,102.67c1.21,1.21,1.11,2,0,3.19C73.4,110.39,69,115,64.49,119.59Q53.78,130.54,43,141.47c-.5.51-1,1.5-1.71,1.23s-.41-1.32-.41-2Q40.87,122.49,40.89,104.3Z" transform="translate(-30.85 -48.02)"/><path d="M170.74,105q0,17.89,0,35.78c0,.69.41,1.7-.46,2-.67.23-1.1-.66-1.56-1.13q-17.37-17.76-34.74-35.5c-1.08-1.1-1.35-1.92-.08-3,.62-.52,1.08-1.23,1.66-1.81Q152.13,84.64,168.75,68c.45-.46.85-1.35,1.57-1.08s.4,1.2.4,1.84Q170.75,86.86,170.74,105Z" transform="translate(-30.85 -48.02)"/></g></g></g></svg>