<svg xmlns="http://www.w3.org/2000/svg" viewBox="0 0 182.44 286.22"><defs><style>.cls-1{fill:#fff;}</style></defs><g id="Ebene_2" data-name="Ebene 2"><g id="Ebene_1-2" data-name="Ebene 1"><g id="Ebene_2-2" data-name="Ebene 2"><path class="cls-1" d="M90.49,25.53A20.16,20.16,0,0,0,96.23,28c10,3.05,17.65,9,19.77,20.23.85,4.52-.1,9.47-.62,14.18-.26,2.35-.26,4.07,1.45,6,7.77,8.65,13.58,8.53,20.64-.73C139,65.61,146.49,41,148,39c7.55-10.07,8.83-15.22,16.07-6.52,4,4.81-1.65,34.08-4.83,39.49-9.09,15.51-6.62,34.1-24.31,38.55a40.36,40.36,0,0,1-26.53-2.4c-.29,6.73-.93,13.13-.76,19.5q.57,21.89,1.81,43.75a665.26,665.26,0,0,0,11.27,88.35c1.46,7.6,1.6,14.94-4.38,20.37-3,2.73-7.06,4.15-10.64,6.15H99.36c-7.84-2.48-11.09-8.52-12.53-16.63-5.15-29-9.45-58.18-11.65-87.65-.08-1-.29-1.91-.58-3.78-.86,1.85-1.36,2.89-1.83,4Q53,226.54,33.21,271a46.07,46.07,0,0,1-2.57,5A13.86,13.86,0,0,1,15,282.61c-9.78-2.43-19.42-14.15-12.83-28.46q10.15-22.08,19.94-44.36,16-36.51,31.79-73.16a11.11,11.11,0,0,0,1-4.12c.35-26.83,2.89-53.37,8.74-79.52.25-1.12,5-7.91,4.22-8.64C85,18.19,87.78,32.67,90.49,25.53"/><rect class="cls-1" x="58.41" y="3.99" width="99.61" height="40.43" rx="3"/><path class="cls-1" d="M136.28,22c-1.48.74-1.52,2-.1,2.87L179.6,50.59c1.42.84,2.59.18,2.6-1.47l.24-47.18A1.7,1.7,0,0,0,179.77.28L136.28,22c-1.48.74-1.52,2-.1,2.87L179.6,50.59c1.42.84,2.59.18,2.6-1.47l.24-47.18A1.7,1.7,0,0,0,179.77.28Z"/></g></g></g></svg>