<?xml version="1.0" encoding="UTF-8" standalone="no"?>
<svg
   viewBox="0 0 196.53 193.06"
   version="1.1"
   id="svg48"
   sodipodi:docname="flap.svg"
   inkscape:version="1.1 (c68e22c387, 2021-05-23)"
   xmlns:inkscape="http://www.inkscape.org/namespaces/inkscape"
   xmlns:sodipodi="http://sodipodi.sourceforge.net/DTD/sodipodi-0.dtd"
   xmlns="http://www.w3.org/2000/svg"
   xmlns:svg="http://www.w3.org/2000/svg"
   xmlns:rdf="http://www.w3.org/1999/02/22-rdf-syntax-ns#"
   xmlns:cc="http://creativecommons.org/ns#"
   xmlns:dc="http://purl.org/dc/elements/1.1/">
  <metadata
     id="metadata52">
    <rdf:RDF>
      <cc:Work
         rdf:about="">
        <dc:format>image/svg+xml</dc:format>
        <dc:type
           rdf:resource="http://purl.org/dc/dcmitype/StillImage" />
      </cc:Work>
    </rdf:RDF>
  </metadata>
  <sodipodi:namedview
     pagecolor="#ffffff"
     bordercolor="#666666"
     borderopacity="1"
     objecttolerance="10"
     gridtolerance="10"
     guidetolerance="10"
     inkscape:pageopacity="0"
     inkscape:pageshadow="2"
     inkscape:window-width="1342"
     inkscape:window-height="902"
     id="namedview50"
     showgrid="false"
     inkscape:zoom="13.310357"
     inkscape:cx="169.07886"
     inkscape:cy="173.17342"
     inkscape:window-x="0"
     inkscape:window-y="0"
     inkscape:window-maximized="0"
     inkscape:current-layer="Ebene_1-2"
     inkscape:pagecheckerboard="0" />
  <defs
     id="defs4">
    <style
       id="style2">.cls-1{fill:#fff;}</style>
  </defs>
  <g
     id="Ebene_2"
     data-name="Ebene 2"
     style="fill:#ffffff">
    <g
       id="Ebene_1-2"
       data-name="Ebene 1"
       style="fill:#ffffff">
      <path
         d="M53.35,71.26a1.13,1.13,0,0,1-.76.54c-4,0-8,0-12.26,0l7.46-13H35c-.1.07-.05.14-.16.19L31.7,64.57c-1.32-1.62-2.6-3.17-3.84-4.75a1.51,1.51,0,0,1-.19-.81c1-.37.29-.83,0-1.16-1.2-1.57-2.45-3.1-3.62-4.68-.19-.25-.12-.71-.17-1.13-1.12,0-7.71-6.44-10.27-10.35l.87-.63c-.52-.48-.89-1.08-1.4-1.22a13.1,13.1,0,0,0-3.29-.5c-2.74-.07-5.48,0-8.21,0C0,39.31,0,39.31,0,41Q.3,56.17.61,71.35c0,.47.07.93.11,1.37,1.89.2,1.9.2,1.91,2,0,2.52-.06,5,0,7.56Q3.39,121.17,4.16,160a18.44,18.44,0,0,0,2.15,8.62c2.67,4.88,6.52,7.82,12.48,7.72,23.36-.4,46.72-.65,70.09-.93q16.94-.21,33.88-.29a11.47,11.47,0,0,0,8.51-4A18.05,18.05,0,0,0,136,158.76q.59-28.8,1.13-57.59c.17-8.69.28-17.37.54-26,.08-2.46.68-4.91.85-7.37s.12-5,.15-7.56c0-.41,0-.83-.07-1.3l-2-.15C134.34,62.5,132,66.09,130,69.83a3.31,3.31,0,0,1-3.55,2c-3.28-.13-6.57,0-10.18,0L124,58.81H111.11a2.38,2.38,0,0,1,0,.26,1.66,1.66,0,0,1-.19.48q-3.45,5.91-6.93,11.8a1,1,0,0,1-.73.41c-3.94,0-7.88,0-12.13,0,2.58-4.42,5-8.62,7.59-13H86c-.09.18-.17.29-.28.49l-.22.42q-3.37,5.81-6.8,11.59a1.12,1.12,0,0,1-.8.48c-4,0-7.89,0-12.13,0l7.52-13H60.63M5.39,43.4c1.13,0,1.93,1,1.91,2.47s-.79,2.35-1.89,2.32S3.53,47.1,3.57,45.66,4.3,43.4,5.39,43.4ZM5.88,70A2.07,2.07,0,0,1,4,67.63c0-1.25.89-2.41,1.84-2.42s1.91,1.19,1.92,2.5A2,2,0,0,1,5.88,70Zm20.21,0c-1.12,0-1.91-1-1.9-2.32s.87-2.4,1.83-2.41,1.89,1.15,1.88,2.5S27.18,69.91,26.09,69.92Z"
         id="path6"
         style="fill:#ffffff" />
      <path
         d="M35.53,48a2.69,2.69,0,0,1,.27.32L48.22,44l-.5.17c.5-.17.13-.65-.18-1a1.86,1.86,0,0,1-.26-.23c-3.1-3.3-6.25-6.55-9.3-9.73L25.54,37.53l10,10.41Z"
         id="path8"
         style="fill:#ffffff" />
      <path
         d="M122.25,17.74a4.19,4.19,0,0,1-.7-.62c-2.64-2.86-5.24-5.75-7.86-8.63a1.83,1.83,0,0,0-2.28-.66c-1.14.48-2.34.81-3.52,1.21l-7.77,2.65,9.72,10.45h0c.1.11.21.22.3.34h0c3-1,6.11-2,9.15-3,1.11-.37,2.2-.79,3.32-1.21A2.73,2.73,0,0,1,122.25,17.74Z"
         id="path10"
         style="fill:#ffffff" />
      <path
         d="M97.51,26.5a7.09,7.09,0,0,1-1-.95c-2.68-3-5.45-5.91-8.23-8.82A1.7,1.7,0,0,0,87,16.3a21.65,21.65,0,0,0-2.41.86c-1.75.58-3.52,1.11-5.27,1.71-1.33.45-2.63,1-4,1.48L85,30.66a1.36,1.36,0,0,0,.67.36h0s.1-.1.45-.22c3.1-1,6.21-2,9.28-3.07.62-.22,1.22-.48,1.82-.74S97.52,26.83,97.51,26.5Z"
         id="path12"
         style="fill:#ffffff" />
      <path
         d="M72.78,35.48,60.64,39.69,50.48,29a4.92,4.92,0,0,1,.83-.51,94,94,0,0,0,9.25-3.14c2.09-.94,3-.11,4.18,1.27,2.43,2.76,5,5.37,7.58,8C72.58,34.94,73,35,72.78,35.48Z"
         id="path14"
         style="fill:#ffffff" />
      <path
         d="M125,3.1l8.9-3.1c.78,4.21,1.59,8.33,2.25,12.47.07.45-.71,1-1.07,1.54Z"
         id="path16"
         style="fill:#ffffff" />
      <path
         class="cls-1"
         d="M7.3,45.87c0,1.4-.79,2.35-1.89,2.32S3.53,47.1,3.57,45.66,4.3,43.4,5.39,43.4,7.32,44.42,7.3,45.87Z"
         id="path38"
         style="fill:#ffffff" />
      <path
         class="cls-1"
         d="M7.72,67.71A2,2,0,0,1,5.88,70,2.07,2.07,0,0,1,4,67.63c0-1.25.89-2.41,1.84-2.42S7.71,66.4,7.72,67.71Z"
         id="path40"
         style="fill:#ffffff" />
      <path
         class="cls-1"
         d="M26,65.19c1,0,1.89,1.15,1.88,2.5s-.72,2.22-1.81,2.23-1.91-1-1.9-2.32S25.06,65.2,26,65.19Z"
         id="path42"
         style="fill:#ffffff" />
    </g>
  </g>
</svg>
