<?xml version="1.0" encoding="UTF-8" standalone="no"?>
<svg
   xmlns:dc="http://purl.org/dc/elements/1.1/"
   xmlns:cc="http://creativecommons.org/ns#"
   xmlns:rdf="http://www.w3.org/1999/02/22-rdf-syntax-ns#"
   xmlns:svg="http://www.w3.org/2000/svg"
   xmlns="http://www.w3.org/2000/svg"
   xmlns:sodipodi="http://sodipodi.sourceforge.net/DTD/sodipodi-0.dtd"
   xmlns:inkscape="http://www.inkscape.org/namespaces/inkscape"
   viewBox="0 0 122.12 131.46"
   version="1.1"
   id="svg29"
   sodipodi:docname="lightbulb.svg"
   inkscape:version="1.0.2 (e86c870879, 2021-01-15)">
  <metadata
     id="metadata35">
    <rdf:RDF>
      <cc:Work
         rdf:about="">
        <dc:format>image/svg+xml</dc:format>
        <dc:type
           rdf:resource="http://purl.org/dc/dcmitype/StillImage" />
      </cc:Work>
    </rdf:RDF>
  </metadata>
  <defs
     id="defs33" />
  <sodipodi:namedview
     pagecolor="#ffffff"
     bordercolor="#666666"
     borderopacity="1"
     objecttolerance="10"
     gridtolerance="10"
     guidetolerance="10"
     inkscape:pageopacity="0"
     inkscape:pageshadow="2"
     inkscape:window-width="689"
     inkscape:window-height="480"
     id="namedview31"
     showgrid="false"
     inkscape:zoom="4.7390839"
     inkscape:cx="61.060001"
     inkscape:cy="65.730003"
     inkscape:window-x="0"
     inkscape:window-y="0"
     inkscape:window-maximized="0"
     inkscape:current-layer="svg29" />
  <g
     id="Ebene_2"
     data-name="Ebene 2"
     style="fill:#ffffff">
    <g
       id="Ebene_1-2"
       data-name="Ebene 1"
       style="fill:#ffffff">
      <g
         id="Ebene_2-2"
         data-name="Ebene 2"
         style="fill:#ffffff">
        <path
           d="M61.19,110.34c-3.81,0-7.62,0-11.42,0-2.81,0-4.07-1-4.27-4-.53-7.85-3.14-14.76-8.93-20.59-21.3-21.44-12.39-55.38,17-62.39,20.25-4.83,39.85,7.83,43.74,29.22,2.3,12.63-1.73,23.4-10.54,32.51a32,32,0,0,0-9.51,21c-.09,1.51-2.53,3.84-4.15,4.1C69.2,110.75,65.16,110.34,61.19,110.34Zm12.13-4.28c-.44-10.65,4.22-18.37,11.11-25.26a31,31,0,0,0,5.13-36.62C84,33.67,72,26.13,57.28,27.42,36.66,29.22,20.09,56.55,35.62,77c6.72,8.83,15.18,16.56,14,29.11Z"
           id="path2"
           style="fill:#ffffff" />
        <path
           d="M47,117.26c-.87-3.42,0-5,3.42-5,7.42.08,14.86-.11,22.28.15,1.27,0,2.48,1.76,3.71,2.7-1.23.72-2.45,2-3.7,2C64.13,117.34,55.56,117.26,47,117.26Z"
           id="path4"
           style="fill:#ffffff" />
        <path
           d="M61.39,124.22c-3.46,0-6.93.17-10.36-.1-1.15-.09-2.21-1.3-3.31-2,1-.63,2-1.78,3-1.8q10.86-.22,21.72,0c.81,0,1.59,1.15,2.38,1.76-.86.71-1.68,2-2.58,2C68.64,124.36,65,124.22,61.39,124.22Z"
           id="path6"
           style="fill:#ffffff" />
        <path
           d="M112.35,55.58a50.14,50.14,0,0,1,6.94.09c1,.14,1.89,1.34,2.83,2.06-.7.77-1.38,2.18-2.12,2.21-5.1.24-10.22.28-15.33.14-.79,0-1.55-1.34-2.32-2,.85-.82,1.62-2.2,2.56-2.33A57.6,57.6,0,0,1,112.35,55.58Z"
           id="path8"
           style="fill:#ffffff" />
        <path
           d="M14.09,101.29c.84-2.11,1.05-3.67,1.92-4.62,2.87-3.14,5.9-6.16,9-9a4.13,4.13,0,0,1,3.36-.7c.57.17,1.3,2.41,1,2.75-3.83,4-7.82,7.79-11.88,11.54C17.08,101.63,16,101.29,14.09,101.29Z"
           id="path10"
           style="fill:#ffffff" />
        <path
           d="M106.87,102.32c-2.3-1.43-4.16-2.24-5.55-3.53a98.72,98.72,0,0,1-7.8-8.18,4.12,4.12,0,0,1-.41-3.26c.12-.46,2.15-1,2.44-.74,4,4.17,7.9,8.48,11.75,12.8C107.51,99.64,107.19,100.33,106.87,102.32Z"
           id="path12"
           style="fill:#ffffff" />
        <path
           d="M36.44,27.8c-2.59-1.85-4.53-3-6.17-4.46a103.83,103.83,0,0,1-7.58-7.55,3,3,0,0,1-.39-2.87c.51-.66,2.47-1.19,2.85-.81,4,3.86,7.77,7.89,11.5,12C37,24.49,36.6,25.6,36.44,27.8Z"
           id="path14"
           style="fill:#ffffff" />
        <path
           d="M82.81,24.06c4-3.79,8-7.64,12.19-11.31.67-.6,2-.44,3-.63,0,1.16.48,2.77-.1,3.41A129.08,129.08,0,0,1,87.6,25.85c-.79.7-2.73.1-4.14.1Z"
           id="path16"
           style="fill:#ffffff" />
        <path
           d="M63.46,10.1c0,2.46.12,4.93-.07,7.38,0,.76-1,1.46-1.46,2.18-.82-.62-2.32-1.22-2.35-1.88-.2-5.24-.22-10.49,0-15.73,0-.71,1.47-1.37,2.25-2,.56.74,1.52,1.45,1.58,2.22C63.58,4.83,63.46,7.47,63.46,10.1Z"
           id="path18"
           style="fill:#ffffff" />
        <path
           d="M0,53.74c6.78,0,12.14-.08,17.5.08.81,0,1.58,1.15,2.37,1.76-.52.55-1,1.55-1.55,1.56-5.25.1-10.5.09-15.74-.09C2,57,1.51,55.73,0,53.74Z"
           id="path20"
           style="fill:#ffffff" />
        <path
           d="M51.8,127.15H70.69C67.66,132.8,56.62,133,51.8,127.15Z"
           id="path22"
           style="fill:#ffffff" />
        <path
           d="M37.47,54.76c2.22-11.17,9.14-19.39,21.09-21,1.52-.21,3.25,1.08,4.88,1.67-1.37,1-2.67,2.78-4.15,3a18.6,18.6,0,0,0-14.83,10c-1.07,1.94-1.23,4.37-2.2,6.39-.52,1.11-1.86,1.82-2.82,2.71Z"
           id="path24"
           style="fill:#ffffff" />
      </g>
    </g>
  </g>
</svg>
