<svg xmlns="http://www.w3.org/2000/svg" viewBox="0 0 185.89 146.53"><defs><style>.cls-1{fill:#fcfcfc;}</style></defs><g id="Ebene_2" data-name="Ebene 2"><g id="Ebene_1-2" data-name="Ebene 1"><g id="Ebene_2-2" data-name="Ebene 2"><path class="cls-1" d="M139.13,41c4.93-1.2,9.73-2.78,14.66-3.47a46.31,46.31,0,0,1,12.88-.08c10.44,1.53,16.15,7.45,18.06,17.9a32.59,32.59,0,0,1-3.83,22.06c-3.48,6.29-7.64,12.22-11.67,18.2-3.64,5.4-7.49,10.67-9.83,16.81-2.74,7.2-1,13.6,3.94,19.17,3.23,3.63,7.57,4.68,12.3,4.45,2.38-.11,4.76-.19,7.13-.17a3,3,0,0,1,3,2.5c.39,1.67-.54,2.73-1.83,3.5-4.54,2.7-9.33,2.51-14.22,1.2-16.25-4.31-22-20-17.26-34,2.55-7.52,6.9-13.94,11.92-20,4.85-5.82,9.52-11.74,12-19a23.6,23.6,0,0,0-.08-17A12,12,0,0,0,168,45.5c-6.54-1.86-19.54-.68-25.83,2.49,7.57,22.27,5.82,43.7-6.55,63.86a70.16,70.16,0,0,1-41.65,31.72c-37.4,10.67-75.34-8.24-89.14-44.52A73,73,0,0,1,41,7.56C76.1-9.87,120.74,3.47,139.13,41ZM39.7,58.46A15.26,15.26,0,1,0,55,73.66,15.28,15.28,0,0,0,39.7,58.46ZM58.09,40.09A15.26,15.26,0,1,0,73.34,24.84,15.26,15.26,0,0,0,58.09,40.09Zm15.17,52a15.23,15.23,0,1,0,.14,30.45,15.23,15.23,0,1,0-.14-30.45ZM91.7,73.67a15.22,15.22,0,1,0,15.24-15.21A15.28,15.28,0,0,0,91.7,73.67Zm-12.19.1a6.07,6.07,0,0,0-12.13-.16,6.07,6.07,0,1,0,12.13.16Z"/></g></g></g></svg>