<?xml version="1.0" encoding="UTF-8" standalone="no"?>
<svg
   xmlns:dc="http://purl.org/dc/elements/1.1/"
   xmlns:cc="http://creativecommons.org/ns#"
   xmlns:rdf="http://www.w3.org/1999/02/22-rdf-syntax-ns#"
   xmlns:svg="http://www.w3.org/2000/svg"
   xmlns="http://www.w3.org/2000/svg"
   xmlns:sodipodi="http://sodipodi.sourceforge.net/DTD/sodipodi-0.dtd"
   xmlns:inkscape="http://www.inkscape.org/namespaces/inkscape"
   viewBox="0 0 160.09 112.53"
   version="1.1"
   id="svg11"
   sodipodi:docname="scissor.svg"
   inkscape:version="1.0.2 (e86c870879, 2021-01-15)">
  <metadata
     id="metadata17">
    <rdf:RDF>
      <cc:Work
         rdf:about="">
        <dc:format>image/svg+xml</dc:format>
        <dc:type
           rdf:resource="http://purl.org/dc/dcmitype/StillImage" />
      </cc:Work>
    </rdf:RDF>
  </metadata>
  <defs
     id="defs15" />
  <sodipodi:namedview
     pagecolor="#ffffff"
     bordercolor="#666666"
     borderopacity="1"
     objecttolerance="10"
     gridtolerance="10"
     guidetolerance="10"
     inkscape:pageopacity="0"
     inkscape:pageshadow="2"
     inkscape:window-width="689"
     inkscape:window-height="480"
     id="namedview13"
     showgrid="false"
     inkscape:zoom="5.5363015"
     inkscape:cx="80.044998"
     inkscape:cy="56.264999"
     inkscape:window-x="0"
     inkscape:window-y="0"
     inkscape:window-maximized="0"
     inkscape:current-layer="svg11" />
  <g
     id="Ebene_2"
     data-name="Ebene 2"
     style="fill:#ffffff">
    <g
       id="Ebene_1-2"
       data-name="Ebene 1"
       style="fill:#ffffff">
      <g
         id="Ebene_2-2"
         data-name="Ebene 2"
         style="fill:#ffffff">
        <path
           d="M160.09,10.82c-.67.43-1,.7-1.43.92q-46,26.7-92,53.36a58.15,58.15,0,0,1-6,2.8c-4.4,1.93-6.25,5-5.88,9.79a63.44,63.44,0,0,1,.3,6.61,18.56,18.56,0,0,1-4.11,11.09c-6.89,8.8-15.51,15-26.76,16.82a34,34,0,0,1-8.67.08,12.81,12.81,0,0,1-8.74-4.59c-1.92-2.31-3.71-4.75-5.41-7.23-2.07-3-1.63-6,.35-8.93a28.29,28.29,0,0,1,9-8.15C17.74,79.13,25,75.21,32,70.94q37.59-22.81,75.1-45.78c5.65-3.45,11.16-7.14,17-10.32a47,47,0,0,1,30.72-5.62,22.84,22.84,0,0,1,3,.78C158.51,10.19,159.15,10.47,160.09,10.82ZM18.25,104.49c1.49-.11,2.48-.12,3.45-.26,9.88-1.47,17.44-6.76,23.26-14.58,1.49-2,2.17-4.69,3-7.14.63-2,.31-3.91-1.65-5.05-2.33-1.35-4.94-2.65-7.55-1.27C30.94,80.32,23.25,84.65,15.56,89a12.37,12.37,0,0,0-6.08,6.68c-1.39,4,.16,7.07,4.28,8.14A37.65,37.65,0,0,0,18.25,104.49Z"
           id="path2"
           style="fill:#ffffff" />
        <path
           d="M74,65.43c3.85-2.3,7.56-4.55,11.33-6.69.36-.2,1.18.18,1.69.47q19.78,11.33,39.56,22.7l31.86,18.29c.48.28.94.58,1.42.88l0,.51c-2.51.58-5,1.53-7.54,1.65-5.56.27-11.14.18-16.71.1a12.73,12.73,0,0,1-6.84-2.25Q102.39,83.85,75.92,66.72Z"
           id="path4"
           style="fill:#ffffff" />
        <path
           d="M64.85,46.36c-3.48,2.12-6.77,4.17-10.14,6.11a2.46,2.46,0,0,1-1.85-.31c-10-5.16-20-10.3-29.95-15.57a99.12,99.12,0,0,1-11.37-6.66c-4.19-3-7.13-7.12-7.19-12.54C4.22,5.85,11.08-.69,22.06.06,31.29.68,40.5,7.46,42.7,15.94c.7,2.68.44,5.62.57,8.44a11.72,11.72,0,0,1-.19,2.43c-.86,5,1.59,8.22,5.68,10.52,4.79,2.71,9.62,5.36,14.44,8C63.7,45.65,64.18,46,64.85,46.36Zm-29.17-24h.08c-.09-.74-.12-1.5-.27-2.23C34.31,14,28.5,8.74,22,7.67c-4.32-.7-8.21,1.17-9.9,4.77s-.6,7.27,2.95,10.18a35.3,35.3,0,0,0,12.43,6.44c5.27,1.57,8-.57,8.25-6C35.69,22.78,35.68,22.55,35.68,22.32Z"
           id="path6"
           style="fill:#ffffff" />
      </g>
    </g>
  </g>
</svg>
